<?xml version="1.0" encoding="utf-8"?>
<!-- Generator: Adobe Illustrator 16.0.3, SVG Export Plug-In . SVG Version: 6.00 Build 0)  -->
<!DOCTYPE svg PUBLIC "-//W3C//DTD SVG 1.1//EN" "http://www.w3.org/Graphics/SVG/1.1/DTD/svg11.dtd">
<svg version="1.1" id="Layer_1" xmlns="http://www.w3.org/2000/svg" xmlns:xlink="http://www.w3.org/1999/xlink" x="0px" y="0px"
	 width="250px" height="32px" viewBox="0 0 250 32" enable-background="new 0 0 250 32" xml:space="preserve">
<g>
	<path d="M18.42,3.468l-0.692,1.629c-1.893-1.458-4.478-2.187-6.663-2.187c-4.041,0-6.663,1.973-6.663,5.103
		c0,9.132,14.963,4.417,14.891,15.479c0,4.63-3.531,7.632-8.847,7.632c-3.386,0-6.844-1.758-9.065-4.331l0.801-1.586
		c2.075,2.529,5.315,4.073,8.301,4.073c4.369,0,7.172-2.229,7.172-5.745c0.073-9.391-14.891-4.588-14.891-15.394
		c0-4.331,3.349-7.118,8.374-7.118C13.724,1.024,16.527,2.01,18.42,3.468z"/>
	<path d="M49.836,16.074c0,8.318-5.898,15.05-13.18,15.05c-7.281,0-13.179-6.731-13.179-15.05S29.375,1.067,36.656,1.067
		C43.938,1.067,49.836,7.756,49.836,16.074z M25.042,16.074c0,7.332,5.243,13.292,11.614,13.292c6.372,0,11.614-5.96,11.614-13.292
		S43.028,2.825,36.656,2.825C30.285,2.825,25.042,8.742,25.042,16.074z"/>
	<path d="M75.861,18.818c0,7.804-3.786,12.306-10.303,12.306s-10.303-4.502-10.303-12.306V1.11h1.529v17.708
		c0,6.688,3.24,10.548,8.774,10.548c5.534,0,8.774-3.859,8.774-10.548V1.11h1.529V18.818z"/>
	<path d="M95.162,19.013c-0.724,0.078-1.43,0.078-2.195,0.078h-7.463v11.99h-1.529V1.11c0,0,6.745,0,8.993,0
		c4.324,0,8.98,1.441,9.751,7.703c0.531,4.313-1.563,7.844-6.147,9.807l6.372,12.462h-1.821L95.162,19.013z M92.622,17.333
		c5.41-0.302,9.285-2.97,8.72-8.318c-0.55-5.202-4.758-6.286-8.31-6.421c-1.873-0.071-7.527,0.094-7.527,0.094v14.646
		C85.504,17.333,90.75,17.438,92.622,17.333z"/>
	<path d="M129.661,5.098l-0.91,1.372c-2.112-2.315-4.988-3.688-8.01-3.688c-6.444,0-11.65,5.917-11.65,13.249
		c0,7.375,5.206,13.335,11.65,13.335c3.021,0,5.861-1.372,8.01-3.645l0.946,1.243c-2.366,2.572-5.607,4.159-8.993,4.159
		c-7.245,0-13.143-6.731-13.143-15.05s5.898-15.007,13.143-15.007C124.127,1.067,127.294,2.61,129.661,5.098z"/>
	<path d="M137.375,2.868v11.963h13.252v1.801h-13.252v12.692h15.363v1.758h-16.893V1.11h16.42v1.758H137.375z"/>
	<path d="M161.799,4.369v9.862h12.853v3.302h-12.853v10.29h14.854v3.259h-17.767V1.067h17.293v3.302H161.799z"/>
	<path d="M184.804,23.492l-2.84,7.589h-3.095l11.432-30.014h3.022l11.396,30.014h-3.168l-2.84-7.589H184.804z M191.721,4.969
		l-5.679,15.222h11.432L191.721,4.969z"/>
	<path d="M224.083,3.726l-1.238,3.216c-2.294-1.801-4.987-2.53-7.026-2.53c-3.276,0-5.425,1.458-5.425,3.987
		c0,7.718,14.345,3.688,14.309,14.579c0,5.017-3.75,8.232-9.212,8.232c-3.713,0-7.354-1.887-9.757-4.588l1.311-3.087
		c2.366,2.701,5.606,4.244,8.483,4.244c3.677,0,5.971-1.758,5.971-4.631c0.036-7.889-14.309-3.688-14.309-14.449
		c0-4.717,3.532-7.761,8.811-7.761C218.949,0.938,221.971,2.053,224.083,3.726z"/>
	<path d="M239.697,31.081h-2.877V20.919l-9.866-19.852h3.021l8.265,15.65l8.155-15.65h2.985l-9.684,19.724V31.081z"/>
</g>
<path d="M3.5-32"/>
</svg>
